<!DOCTYPE svg PUBLIC "-//W3C//DTD SVG 1.1//EN" "http://www.w3.org/Graphics/SVG/1.1/DTD/svg11.dtd">
<!-- Uploaded to: SVG Repo, www.svgrepo.com, Transformed by: SVG Repo Mixer Tools -->
<svg width="800px" height="800px" viewBox="0 0 32 32" xmlns="http://www.w3.org/2000/svg" fill="#CBA174">
<g id="SVGRepo_bgCarrier" stroke-width="0"/>
<g id="SVGRepo_tracerCarrier" stroke-linecap="round" stroke-linejoin="round" stroke="#CCCCCC" stroke-width="6.144"> <defs> <style>.cls-1{fill:none;stroke:#CBA174;stroke-linecap:round;stroke-linejoin:round;stroke-width:2px;}</style> </defs> <title/> <g data-name="Layer 2" id="Layer_2"> <path class="cls-1" d="M28,20A12,12,0,0,1,4,20Z"/> <path class="cls-1" d="M22.93,24A8,8,0,0,1,9.07,24"/> <line class="cls-1" x1="7" x2="25" y1="31" y2="31"/> <line class="cls-1" x1="25" x2="29" y1="20" y2="16"/> <path class="cls-1" d="M23,8A7,7,0,0,0,9,8Z"/> <polyline class="cls-1" points="9 20 9 8 23 8 23 20"/> <line class="cls-1" x1="12" x2="14" y1="12" y2="12"/> <line class="cls-1" x1="18" x2="20" y1="12" y2="12"/> <path class="cls-1" d="M20,16a4,4,0,0,1-8,0"/> </g> </g>
<g id="SVGRepo_iconCarrier"> <defs> <style>.cls-1{fill:none;stroke:#CBA174;stroke-linecap:round;stroke-linejoin:round;stroke-width:2px;}</style> </defs> <title/> <g data-name="Layer 2" id="Layer_2"> <path class="cls-1" d="M28,20A12,12,0,0,1,4,20Z"/> <path class="cls-1" d="M22.93,24A8,8,0,0,1,9.07,24"/> <line class="cls-1" x1="7" x2="25" y1="31" y2="31"/> <line class="cls-1" x1="25" x2="29" y1="20" y2="16"/> <path class="cls-1" d="M23,8A7,7,0,0,0,9,8Z"/> <polyline class="cls-1" points="9 20 9 8 23 8 23 20"/> <line class="cls-1" x1="12" x2="14" y1="12" y2="12"/> <line class="cls-1" x1="18" x2="20" y1="12" y2="12"/> <path class="cls-1" d="M20,16a4,4,0,0,1-8,0"/> </g> </g>
</svg>